<svg width="174" height="143" viewBox="0 0 174 143" fill="none" xmlns="http://www.w3.org/2000/svg">
<path d="M97.5551 44.5833C98.1112 44.5833 98.5481 44.7422 98.8659 45.06C99.2631 45.3778 99.4617 45.775 99.4617 46.2517V126.332C99.4617 126.808 99.2631 127.206 98.8659 127.523C98.5481 127.841 98.1112 128 97.5551 128H73.9601C73.404 128 72.9273 127.841 72.5301 127.523C72.1329 127.126 71.9342 126.729 71.9342 126.332V71.0383C71.9342 70.6411 71.7754 70.2836 71.4576 69.9658C71.1398 69.5686 70.7426 69.37 70.2659 69.37H51.5567C50.7623 69.37 50.2062 69.8467 49.8884 70.8L42.8576 109.768C41.507 115.09 38.7265 119.46 34.5159 122.876C30.3848 126.292 25.6181 128 20.2159 128H5.43925C5.04203 128 4.6448 127.841 4.24758 127.523C3.9298 127.206 3.77091 126.808 3.77091 126.332V102.379C3.77091 101.982 3.9298 101.624 4.24758 101.307C4.6448 100.909 5.04203 100.711 5.43925 100.711H16.6409L26.1742 46.2517C26.2537 45.775 26.4523 45.3778 26.7701 45.06C27.1673 44.7422 27.6042 44.5833 28.0809 44.5833H97.5551Z" fill="black"/>
<rect x="67" y="44.6" width="107" height="24.4" fill="black"/>
<rect x="150" y="45" width="24" height="81" fill="black"/>
<path d="M47.6661 69H101.291V128.583H68.5203H20.8536C37.5369 128.583 45.68 90.8472 47.6661 71.9792V69Z" fill="white"/>
</svg>
